<svg version="1.1" id="Layer_1" xmlns="http://www.w3.org/2000/svg" xmlns:xlink="http://www.w3.org/1999/xlink" x="0px" y="0px"
	 width="100%" viewBox="0 0 720 432" enable-background="new 0 0 720 432" xml:space="preserve">
<path fill="#FFFFFF" opacity="1.000000" stroke="none" 
	d="
M423.000000,433.000000 
	C282.000031,433.000000 141.500031,433.000000 1.000038,433.000000 
	C1.000025,289.000031 1.000025,145.000061 1.000013,1.000076 
	C240.999939,1.000051 480.999878,1.000051 720.999878,1.000026 
	C720.999878,144.999924 720.999878,288.999847 720.999939,432.999878 
	C621.833313,433.000000 522.666687,433.000000 423.000000,433.000000 
M192.925552,293.008972 
	C201.285065,293.012268 209.644562,293.015564 218.428680,293.579254 
	C219.804367,293.816711 221.195160,294.317261 222.552734,294.239288 
	C225.818771,294.051788 229.069595,293.596497 232.325912,293.243286 
	C237.480865,292.684113 242.649307,292.215302 247.775452,291.459991 
	C248.586731,291.340454 249.833359,289.860474 249.763718,289.113464 
	C249.665329,288.058136 248.735397,286.748627 247.783752,286.187439 
	C246.558914,285.465149 244.979904,285.226501 243.520126,285.039032 
	C235.641693,284.027283 227.761795,282.999573 219.855164,282.274170 
	C218.990616,282.194855 217.951843,284.014496 216.409317,285.014832 
	C215.939484,285.316498 215.469650,285.618164 214.166977,285.947968 
	C212.781616,285.895813 211.396271,285.843658 209.991898,285.148499 
	C209.631577,284.586456 209.271255,284.024384 208.910950,283.462341 
	C208.603653,284.237244 208.296341,285.012115 207.108505,285.891754 
	C204.741943,285.859314 202.375366,285.826904 200.007935,285.034241 
	C201.705978,282.696442 202.930359,279.404877 205.223770,278.265900 
	C207.994797,276.889740 211.667831,277.294739 214.957275,277.006348 
	C219.115662,276.641724 223.609680,277.212524 227.345306,275.779846 
	C230.690948,274.496735 233.436813,273.746552 236.788528,275.000488 
	C237.911743,275.420685 239.292358,275.154541 240.555420,275.199066 
	C244.062515,275.322632 247.575012,275.363556 251.075104,275.593384 
	C253.779190,275.770935 256.467773,276.184448 260.638245,276.661957 
	C262.320862,279.176331 264.951477,283.107300 267.593811,287.055817 
	C269.514099,288.158813 272.223419,289.041351 273.921295,290.865387 
	C275.921539,293.014252 275.472443,297.716309 280.504883,296.525452 
	C280.764465,296.463989 281.688446,298.285492 281.934113,299.318146 
	C282.257690,300.678223 282.215515,302.125275 282.360687,303.903168 
	C287.733429,301.778107 289.566467,304.200958 290.068817,308.719727 
	C290.181122,309.730103 290.800323,311.131622 291.599060,311.534546 
	C294.020020,312.755859 296.643585,313.575653 299.842407,314.802856 
	C299.952820,314.613495 300.671631,313.380768 302.017120,312.472565 
	C305.107666,314.752441 307.752960,320.115662 312.310333,315.516876 
	C317.783844,309.993622 322.653717,303.850769 327.548370,297.785248 
	C329.670563,295.155426 329.002869,292.527344 326.162689,290.502045 
	C322.776031,288.087097 319.459869,285.573242 316.111115,283.105011 
	C301.784302,272.545319 287.456696,261.986664 273.864777,251.065491 
	C274.114441,250.656631 274.678131,250.111328 274.568329,249.858658 
	C270.712646,240.984924 273.920776,231.743958 273.283356,222.697845 
	C272.848663,216.528687 274.558441,210.234680 274.848145,203.975143 
	C274.962708,201.499283 273.760742,198.978226 273.282074,196.454254 
	C272.894684,194.411682 271.773071,191.824097 272.580658,190.367065 
	C275.031372,185.945526 273.457092,183.614807 268.961212,182.227615 
	C275.361664,177.532898 275.304901,175.901199 269.223541,171.525772 
	C268.285889,170.851120 267.401672,170.039062 266.679993,169.140228 
	C265.115204,167.191330 263.671509,165.145142 262.178314,163.138763 
	C264.671967,162.362473 267.168060,161.593704 269.656189,160.800079 
	C269.958069,160.703796 270.217224,160.473602 270.890778,160.067642 
	C270.806091,158.998672 271.166870,157.390808 270.526031,156.520096 
	C267.596252,152.539398 269.678345,148.690292 271.056152,145.243057 
	C273.571808,138.949097 270.437134,130.624664 264.040314,129.267181 
	C260.432922,128.501648 259.387085,126.787895 258.789154,123.282867 
	C258.202545,119.844032 256.892639,115.348724 254.364594,113.759079 
	C251.928696,112.227371 247.529648,113.817665 243.337402,114.023933 
	C242.900177,114.021378 242.462952,114.018814 241.154190,114.004417 
	C237.228149,114.692726 233.302094,115.381035 228.164032,116.281837 
	C230.184433,119.086647 231.593735,121.043121 233.008438,123.666870 
	C233.008270,124.111732 233.008102,124.556595 232.303574,125.075638 
	C229.000900,126.620361 228.959610,128.858200 230.370163,131.935760 
	C231.775299,135.001511 232.674423,138.320663 233.502655,141.602600 
	C233.608414,142.021698 231.953232,143.443268 231.106567,143.449738 
	C227.068207,143.480637 223.027328,143.183228 218.690170,142.400299 
	C216.119904,140.278671 213.549637,138.157043 211.063004,135.311768 
	C212.101257,132.548813 211.865509,130.726578 208.391739,129.843414 
	C202.640396,128.381210 199.046844,130.268051 195.874725,137.754333 
	C192.180893,138.914719 189.578354,141.211197 187.931274,144.780533 
	C187.602036,145.494003 186.021057,145.629868 184.504196,145.457260 
	C182.127991,145.147736 179.108185,143.464066 178.802032,148.463303 
	C178.605499,148.734665 178.347733,148.921600 177.430237,148.586441 
	C176.620560,146.411835 175.713989,144.267014 175.033218,142.052780 
	C174.528473,140.411072 174.317108,138.679153 173.988464,136.266174 
	C174.656174,134.509964 175.323883,132.753754 176.767578,130.997849 
	C178.409348,129.726776 181.604660,128.146439 181.423843,127.238220 
	C180.643127,123.316727 179.099426,119.481796 177.330261,115.861206 
	C176.781036,114.737221 174.672729,113.851982 173.229340,113.775124 
	C165.399719,113.358231 157.555374,113.204597 149.714645,113.022423 
	C148.283096,112.989159 146.844864,113.243103 145.085434,113.391891 
	C145.085434,121.352707 145.058884,128.904572 145.100037,136.456085 
	C145.114182,139.051025 145.399551,141.645737 145.381683,144.239319 
	C145.346664,149.314636 145.454803,154.412949 145.007706,159.457764 
	C144.463470,165.598389 147.040039,171.980545 143.357422,177.975800 
	C142.762207,178.944809 144.412796,181.293274 145.013550,183.669388 
	C145.005798,184.112930 144.998032,184.556458 144.257523,185.008896 
	C142.738251,185.559448 141.218994,186.110016 139.673035,186.670242 
	C138.604950,185.768326 137.526749,184.857880 136.593353,184.069687 
	C134.381378,185.790878 132.285278,187.122147 130.602173,188.854645 
	C129.725540,189.757004 129.145844,191.376678 129.174988,192.655426 
	C129.297607,198.034027 129.574066,203.417358 130.046036,208.776794 
	C130.349899,212.227432 131.091599,215.639526 131.721008,219.596680 
	C125.730614,224.599304 130.276138,231.808609 130.253372,238.509430 
	C131.070343,236.393875 131.887314,234.278320 132.704269,232.162766 
	C133.287720,232.275360 133.871170,232.387955 134.454620,232.500549 
	C134.328629,234.186264 133.879959,235.932831 134.182587,237.537720 
	C134.409363,238.740311 135.603363,239.760498 136.366730,240.861893 
	C137.241119,239.979904 138.399887,239.236603 138.915329,238.179581 
	C139.511749,236.956467 139.542068,235.457291 139.818146,234.077972 
	C143.649048,240.611893 146.393082,246.974335 145.122818,254.241226 
	C144.449997,258.090363 145.531097,260.149536 150.039139,260.090668 
	C156.300034,260.008942 159.036514,262.454193 161.318588,268.387939 
	C162.546463,271.580597 164.369492,273.960419 168.574158,274.048828 
	C173.031448,274.142426 177.607574,274.809540 181.871643,276.091522 
	C186.006317,277.334595 188.902969,276.873291 191.639679,273.055023 
	C192.426651,273.371643 193.213638,273.688263 194.073608,274.709930 
	C198.083298,278.155884 196.116165,281.555634 193.120865,284.980408 
	C191.080170,284.980896 189.039490,284.981384 186.867615,284.260864 
	C186.057938,283.942474 185.217773,283.289429 184.443497,283.359955 
	C179.388000,283.820160 174.339737,284.382202 169.304092,285.027740 
	C167.029846,285.319305 164.714188,285.662323 162.567902,286.412689 
	C161.562851,286.764099 160.914841,288.136719 160.105011,289.046509 
	C161.007172,289.833771 161.804260,291.102386 162.829391,291.326141 
	C167.631287,292.374298 172.473480,293.341461 177.351898,293.872040 
	C178.816650,294.031342 180.444870,292.687531 182.798126,292.013184 
	C183.864685,292.029633 184.931259,292.046112 186.148972,292.774994 
	C188.094879,292.857758 190.040771,292.940552 192.925552,293.008972 
z"/>
<path fill="#595758" opacity="1.000000" stroke="none" 
	d="
M273.129395,251.427643 
	C287.456696,261.986664 301.784302,272.545319 316.111115,283.105011 
	C319.459869,285.573242 322.776031,288.087097 326.162689,290.502045 
	C329.002869,292.527344 329.670563,295.155426 327.548370,297.785248 
	C322.653717,303.850769 317.783844,309.993622 312.310333,315.516876 
	C307.752960,320.115662 305.107666,314.752441 301.580231,312.032074 
	C286.469666,297.374786 271.796021,283.157990 257.083191,268.545837 
	C257.006592,267.096802 256.969147,266.043091 257.127869,264.712646 
	C260.579010,260.402405 263.833984,256.368896 267.436462,252.222412 
	C269.565765,251.882187 271.347595,251.654922 273.129395,251.427643 
z"/>
<path fill="#FCFEFC" opacity="1.000000" stroke="none" 
	d="
M273.497070,251.246567 
	C271.347595,251.654922 269.565765,251.882187 267.407837,251.762375 
	C267.662750,247.439743 268.293793,243.464203 268.970184,239.202957 
	C268.250153,239.141220 267.149719,239.046844 266.029144,238.568665 
	C266.138000,234.943832 265.734985,231.571289 266.497406,228.486862 
	C268.640198,219.818451 272.941132,211.439133 269.052185,202.197647 
	C268.931427,201.910706 269.059479,201.529160 268.995209,201.206924 
	C266.714539,189.770584 264.335815,178.399948 256.711731,168.949203 
	C255.812851,167.834946 255.550705,165.427856 256.091675,164.051834 
	C261.441925,150.442490 261.537659,137.292358 255.763794,123.478905 
	C253.470230,117.991768 250.184280,116.439583 245.671005,114.964561 
	C245.074310,114.769539 244.550613,114.351227 243.993103,114.036331 
	C247.529648,113.817665 251.928696,112.227371 254.364594,113.759079 
	C256.892639,115.348724 258.202545,119.844032 258.789154,123.282867 
	C259.387085,126.787895 260.432922,128.501648 264.040314,129.267181 
	C270.437134,130.624664 273.571808,138.949097 271.056152,145.243057 
	C269.678345,148.690292 267.596252,152.539398 270.526031,156.520096 
	C271.166870,157.390808 270.806091,158.998672 270.890778,160.067642 
	C270.217224,160.473602 269.958069,160.703796 269.656189,160.800079 
	C267.168060,161.593704 264.671967,162.362473 262.178314,163.138763 
	C263.671509,165.145142 265.115204,167.191330 266.679993,169.140228 
	C267.401672,170.039062 268.285889,170.851120 269.223541,171.525772 
	C275.304901,175.901199 275.361664,177.532898 268.961212,182.227615 
	C273.457092,183.614807 275.031372,185.945526 272.580658,190.367065 
	C271.773071,191.824097 272.894684,194.411682 273.282074,196.454254 
	C273.760742,198.978226 274.962708,201.499283 274.848145,203.975143 
	C274.558441,210.234680 272.848663,216.528687 273.283356,222.697845 
	C273.920776,231.743958 270.712646,240.984924 274.568329,249.858658 
	C274.678131,250.111328 274.114441,250.656631 273.497070,251.246567 
M268.197693,142.633514 
	C268.309204,141.165588 268.420715,139.697662 268.620514,137.067993 
	C264.510498,141.242340 264.510498,141.242340 268.197693,142.633514 
z"/>
<path fill="#FCFEFC" opacity="1.000000" stroke="none" 
	d="
M191.001221,273.015106 
	C188.902969,276.873291 186.006317,277.334595 181.871643,276.091522 
	C177.607574,274.809540 173.031448,274.142426 168.574158,274.048828 
	C164.369492,273.960419 162.546463,271.580597 161.318588,268.387939 
	C159.036514,262.454193 156.300034,260.008942 150.039139,260.090668 
	C145.531097,260.149536 144.449997,258.090363 145.122818,254.241226 
	C146.393082,246.974335 143.649048,240.611893 139.818146,234.077972 
	C139.542068,235.457291 139.511749,236.956467 138.915329,238.179581 
	C138.399887,239.236603 137.241119,239.979904 136.366730,240.861893 
	C135.603363,239.760498 134.409363,238.740311 134.182587,237.537720 
	C133.879959,235.932831 134.328629,234.186264 134.454620,232.500549 
	C133.871170,232.387955 133.287720,232.275360 132.704269,232.162766 
	C131.887314,234.278320 131.070343,236.393875 130.253372,238.509430 
	C130.276138,231.808609 125.730614,224.599304 131.721008,219.596680 
	C131.091599,215.639526 130.349899,212.227432 130.046036,208.776794 
	C129.574066,203.417358 129.297607,198.034027 129.174988,192.655426 
	C129.145844,191.376678 129.725540,189.757004 130.602173,188.854645 
	C132.285278,187.122147 134.381378,185.790878 136.593353,184.069687 
	C137.526749,184.857880 138.604950,185.768326 139.673035,186.670242 
	C141.218994,186.110016 142.738251,185.559448 144.487671,185.327972 
	C143.464310,187.846802 141.185593,190.021240 141.130615,192.250534 
	C140.858688,203.276077 140.414474,214.396484 141.569153,225.320847 
	C142.259064,231.848099 145.602844,238.146927 148.110855,244.405289 
	C149.172623,247.054794 151.151779,249.336655 152.713959,251.785614 
	C153.119003,253.003128 154.741760,253.327225 155.693588,254.304672 
	C161.327942,260.090790 167.768936,264.649292 175.071091,268.097473 
	C177.928223,269.446655 180.390686,271.765594 183.331390,272.761139 
	C185.650848,273.546295 188.427582,272.980743 191.001221,273.015106 
z"/>
<path fill="#FCFEFC" opacity="1.000000" stroke="none" 
	d="
M257.122345,268.941193 
	C271.796021,283.157990 286.469666,297.374786 301.266907,311.869812 
	C300.671631,313.380768 299.952820,314.613495 299.842407,314.802856 
	C296.643585,313.575653 294.020020,312.755859 291.599060,311.534546 
	C290.800323,311.131622 290.181122,309.730103 290.068817,308.719727 
	C289.566467,304.200958 287.733429,301.778107 282.360687,303.903168 
	C282.215515,302.125275 282.257690,300.678223 281.934113,299.318146 
	C281.688446,298.285492 280.764465,296.463989 280.504883,296.525452 
	C275.472443,297.716309 275.921539,293.014252 273.921295,290.865387 
	C272.223419,289.041351 269.514099,288.158813 267.593811,287.055817 
	C264.951477,283.107300 262.320862,279.176331 260.638245,276.661957 
	C256.467773,276.184448 253.779190,275.770935 251.075104,275.593384 
	C247.575012,275.363556 244.062515,275.322632 240.555420,275.199066 
	C239.292358,275.154541 237.911743,275.420685 236.788528,275.000488 
	C233.436813,273.746552 230.690948,274.496735 227.345306,275.779846 
	C223.609680,277.212524 219.115662,276.641724 214.957275,277.006348 
	C211.667831,277.294739 207.994797,276.889740 205.223770,278.265900 
	C202.930359,279.404877 201.705978,282.696442 199.610626,285.479797 
	C198.141510,285.930664 197.069733,285.935944 195.827057,285.702942 
	C195.102264,285.294525 194.548370,285.124390 193.994476,284.954224 
	C196.116165,281.555634 198.083298,278.155884 194.271057,274.225250 
	C194.656158,273.442047 194.843826,273.143555 195.359299,272.845093 
	C196.118164,272.913788 196.549240,272.982422 197.230988,273.343323 
	C208.756805,276.825958 219.596191,274.043488 230.335159,270.988678 
	C235.091492,269.635712 238.886475,265.081970 244.612946,266.738556 
	C244.934143,266.831482 245.610779,265.695709 246.483582,265.085052 
	C248.890884,264.383270 250.936615,263.728271 252.987488,263.496460 
	C254.049744,265.856201 250.357712,271.698486 257.122345,268.941193 
z"/>
<path fill="#FCFEFC" opacity="1.000000" stroke="none" 
	d="
M145.025284,183.004105 
	C144.412796,181.293274 142.762207,178.944809 143.357422,177.975800 
	C147.040039,171.980545 144.463470,165.598389 145.007706,159.457764 
	C145.454803,154.412949 145.346664,149.314636 145.381683,144.239319 
	C145.399551,141.645737 145.114182,139.051025 145.100037,136.456085 
	C145.058884,128.904572 145.085434,121.352707 145.085434,113.391891 
	C146.844864,113.243103 148.283096,112.989159 149.714645,113.022423 
	C157.555374,113.204597 165.399719,113.358231 173.229340,113.775124 
	C174.672729,113.851982 176.781036,114.737221 177.330261,115.861206 
	C179.099426,119.481796 180.643127,123.316727 181.423843,127.238220 
	C181.604660,128.146439 178.409348,129.726776 176.380142,130.581879 
	C176.307434,128.563095 177.101181,126.873734 176.830750,125.376602 
	C176.361130,122.776642 175.814224,119.768196 174.169586,117.957558 
	C173.143860,116.828285 170.044052,117.582939 167.555054,117.434929 
	C166.824417,117.240173 166.413757,117.102646 165.725754,116.685181 
	C160.488205,115.109543 156.937653,116.133179 154.694519,121.404770 
	C149.759766,133.001862 148.875946,144.850784 151.134109,157.115891 
	C152.038605,162.028503 157.453979,167.281921 150.298187,171.779984 
	C150.099976,171.904572 150.192291,172.427429 150.051727,172.717361 
	C148.386993,176.151489 146.703690,179.576614 145.025284,183.004105 
M150.431107,117.703369 
	C150.704071,117.989349 150.977036,118.275322 151.250000,118.561302 
	C151.368347,118.448112 151.595825,118.242760 151.589325,118.235046 
	C151.334549,117.933434 151.058472,117.649818 150.431107,117.703369 
z"/>
<path fill="#E1F7FB" opacity="1.000000" stroke="none" 
	d="
M145.019409,183.336746 
	C146.703690,179.576614 148.386993,176.151489 150.051727,172.717361 
	C150.192291,172.427429 150.099976,171.904572 150.298187,171.779984 
	C157.453979,167.281921 152.038605,162.028503 151.134109,157.115891 
	C148.875946,144.850784 149.759766,133.001862 154.694519,121.404770 
	C156.937653,116.133179 160.488205,115.109543 165.364960,116.784004 
	C160.492508,117.666397 157.710968,120.394524 155.854813,124.778702 
	C149.722015,139.264099 150.790405,153.421844 157.230469,167.774155 
	C157.516113,168.397842 157.791641,168.702927 158.287079,169.250702 
	C158.681519,169.891769 158.856033,170.290146 158.502167,170.782318 
	C157.620972,170.935318 157.268158,170.994507 156.570297,171.010986 
	C155.107712,172.279266 153.990158,173.590286 152.887482,174.951996 
	C152.902359,175.002701 152.902878,174.897614 152.623077,175.053864 
	C151.864929,176.141922 151.386597,177.073730 150.831512,178.127441 
	C150.754776,178.249329 150.795486,178.534485 150.544952,178.757355 
	C150.112793,179.601715 149.931183,180.223190 149.785645,180.904541 
	C149.821686,180.964401 149.811249,180.825027 149.553696,180.924759 
	C149.157288,181.359131 149.018433,181.693756 148.803864,182.140182 
	C148.728149,182.251968 148.787155,182.515488 148.508102,182.751999 
	C147.434113,184.966888 146.639191,186.945282 145.879639,188.966431 
	C145.915024,189.009201 145.888687,188.901367 145.611359,189.138458 
	C140.340668,203.354492 140.114304,217.271545 145.853516,231.089417 
	C145.831070,231.068008 145.825775,231.129852 145.832870,231.467377 
	C146.460617,232.924744 147.081253,234.044601 147.819336,235.160828 
	C147.936783,235.157181 147.706223,235.202805 147.676147,235.533798 
	C148.051407,236.616364 148.456757,237.367920 148.848389,238.073090 
	C148.834671,238.026688 148.814682,238.121384 148.825806,238.350952 
	C148.836929,238.580521 149.064667,238.979797 149.094040,239.283752 
	C149.684189,240.413177 150.244965,241.238647 150.874619,242.409210 
	C152.477478,244.602722 154.011444,246.451141 155.576721,248.296509 
	C155.608017,248.293472 155.667755,248.313110 155.662170,248.607925 
	C156.052979,249.315353 156.449387,249.727966 156.830078,250.134537 
	C156.814392,250.128479 156.815521,250.162704 156.878723,250.491333 
	C158.988174,252.835007 161.034439,254.850037 163.066055,256.909027 
	C163.051392,256.953003 163.137894,256.919647 163.258026,257.190186 
	C163.885483,257.753510 164.392807,258.046295 165.001236,258.517212 
	C165.290863,258.910522 165.526535,259.039520 165.985474,259.361084 
	C167.413239,260.465607 168.664871,261.291504 169.963318,262.089478 
	C170.010117,262.061584 169.903763,262.084839 170.054871,262.347076 
	C170.760468,262.810120 171.314972,263.010895 171.920685,263.168060 
	C171.971909,263.124451 171.840714,263.154236 171.937012,263.400177 
	C172.349182,263.781952 172.665054,263.917786 172.987244,264.025574 
	C172.993576,263.997559 172.949631,264.034668 173.126923,264.287262 
	C173.878494,264.728912 174.452774,264.917969 175.142792,265.176361 
	C175.258530,265.245697 175.518250,265.172546 175.695221,265.419678 
	C176.229187,265.847260 176.586166,266.027740 177.123535,266.423248 
	C177.827942,266.826111 178.351990,267.013947 179.125961,267.451965 
	C181.192215,268.219299 183.008545,268.736481 184.814545,269.284180 
	C184.804230,269.314697 184.792267,269.377991 185.064880,269.616699 
	C188.568817,270.851929 191.800156,271.848480 195.031494,272.845032 
	C194.843826,273.143555 194.656158,273.442047 194.234558,273.872742 
	C193.213638,273.688263 192.426651,273.371643 191.320450,273.035065 
	C188.427582,272.980743 185.650848,273.546295 183.331390,272.761139 
	C180.390686,271.765594 177.928223,269.446655 175.071091,268.097473 
	C167.768936,264.649292 161.327942,260.090790 155.693588,254.304672 
	C154.741760,253.327225 153.119003,253.003128 152.713959,251.785614 
	C151.151779,249.336655 149.172623,247.054794 148.110855,244.405289 
	C145.602844,238.146927 142.259064,231.848099 141.569153,225.320847 
	C140.414474,214.396484 140.858688,203.276077 141.130615,192.250534 
	C141.185593,190.021240 143.464310,187.846802 144.854034,185.323532 
	C144.998032,184.556458 145.005798,184.112930 145.019409,183.336746 
z"/>
<path fill="#E1F7FB" opacity="1.000000" stroke="none" 
	d="
M243.665253,114.030128 
	C244.550613,114.351227 245.074310,114.769539 245.671005,114.964561 
	C250.184280,116.439583 253.470230,117.991768 255.763794,123.478905 
	C261.537659,137.292358 261.441925,150.442490 256.091675,164.051834 
	C255.550705,165.427856 255.812851,167.834946 256.711731,168.949203 
	C264.335815,178.399948 266.714539,189.770584 268.995209,201.206924 
	C269.059479,201.529160 268.931427,201.910706 269.052185,202.197647 
	C272.941132,211.439133 268.640198,219.818451 266.497406,228.486862 
	C265.734985,231.571289 266.138000,234.943832 265.924713,238.655518 
	C265.840424,239.126190 265.629944,239.297897 265.384644,239.116425 
	C264.160126,238.180267 263.180969,237.425613 262.267761,236.331482 
	C264.139557,228.462097 266.974182,221.008148 267.537292,213.386398 
	C268.713165,197.470001 264.174103,182.972275 253.369934,170.500000 
	C253.142838,168.834717 253.051041,167.390823 253.077271,165.602905 
	C259.435455,151.473251 259.389618,137.648880 253.308609,123.850922 
	C250.689484,117.908043 245.608612,115.830299 240.382492,118.334373 
	C235.079544,120.875244 234.207550,125.640396 237.725281,133.483582 
	C238.073059,134.396393 238.365814,134.981308 238.627441,135.695221 
	C238.596329,135.824219 238.759796,136.033279 238.742950,136.483521 
	C238.840057,139.625076 238.954010,142.316406 238.762787,144.796936 
	C236.641052,138.057907 234.824493,131.529678 233.007935,125.001457 
	C233.008102,124.556595 233.008270,124.111732 233.143402,123.022301 
	C236.194138,119.590576 239.109924,116.803413 242.025726,114.016251 
	C242.462952,114.018814 242.900177,114.021378 243.665253,114.030128 
z"/>
<path fill="#E1F7FB" opacity="1.000000" stroke="none" 
	d="
M178.028732,149.024109 
	C178.347733,148.921600 178.605499,148.734665 179.295990,148.240784 
	C181.532379,147.356216 183.274826,146.694138 185.017258,146.032074 
	C186.021057,145.629868 187.602036,145.494003 187.931274,144.780533 
	C189.578354,141.211197 192.180893,138.914719 196.391235,137.386597 
	C201.598297,136.691040 206.288834,136.363235 210.979385,136.035431 
	C213.549637,138.157043 216.119904,140.278671 218.876160,143.059433 
	C219.948242,146.025269 220.459442,148.623489 224.140549,147.271225 
	C225.074799,146.928024 226.542633,148.007339 227.755585,148.459091 
	C230.332977,149.419067 232.904022,150.396179 235.419769,151.648270 
	C235.248550,152.298538 235.135223,152.666794 234.635956,153.126648 
	C233.205475,153.102798 232.160889,152.987381 231.106812,152.884933 
	C231.097305,152.897903 231.091522,152.914642 230.879791,152.634583 
	C228.054642,151.342957 225.441208,150.331406 222.106750,149.040771 
	C222.526505,150.964798 222.750305,151.990616 222.925812,153.338089 
	C222.890701,154.092285 222.903870,154.524841 222.687775,155.256439 
	C220.412064,160.580750 224.105713,161.805710 227.533203,163.116333 
	C231.459518,164.617706 231.774628,160.940277 232.947006,158.948639 
	C233.989151,157.178284 234.325943,154.992722 235.158905,152.862701 
	C235.491226,152.326385 235.638702,151.917770 235.856140,151.131744 
	C236.904770,150.161163 237.883438,149.567993 238.923462,149.361328 
	C238.041748,157.420441 233.708786,163.306854 228.654846,168.996796 
	C228.145889,169.226151 227.966080,169.468491 227.614563,169.840332 
	C226.975204,169.992538 226.614334,170.094482 226.207336,169.832367 
	C226.654770,168.173004 227.148300,166.877670 228.208328,164.095566 
	C222.726166,164.806793 218.333389,165.376678 214.104385,165.650970 
	C214.753357,164.900269 215.276077,164.478760 215.718063,163.985016 
	C221.625244,157.385834 221.381851,148.211533 215.161835,142.568146 
	C209.024399,136.999649 198.813171,137.353668 193.178345,143.476410 
	C188.475922,148.585999 186.402527,156.099060 193.680145,164.957520 
	C190.607590,164.796143 187.572189,160.964905 185.358292,165.318283 
	C184.522446,166.961838 184.921539,169.233444 184.427551,171.175049 
	C182.336411,169.545471 180.575409,167.959579 178.863235,165.924652 
	C178.963425,164.574677 179.014771,163.673737 179.468842,162.833588 
	C188.128586,162.376984 188.435211,161.787445 186.217606,149.901291 
	C183.150208,150.985504 180.158005,152.043137 176.834839,153.028198 
	C175.993652,152.320175 175.483444,151.684692 175.329636,151.033875 
	C176.466949,150.353714 177.247833,149.688904 178.028732,149.024109 
z"/>
<path fill="#FCFEFC" opacity="1.000000" stroke="none" 
	d="
M216.993896,284.953369 
	C217.951843,284.014496 218.990616,282.194855 219.855164,282.274170 
	C227.761795,282.999573 235.641693,284.027283 243.520126,285.039032 
	C244.979904,285.226501 246.558914,285.465149 247.783752,286.187439 
	C248.735397,286.748627 249.665329,288.058136 249.763718,289.113464 
	C249.833359,289.860474 248.586731,291.340454 247.775452,291.459991 
	C242.649307,292.215302 237.480865,292.684113 232.325912,293.243286 
	C229.069595,293.596497 225.818771,294.051788 222.552734,294.239288 
	C221.195160,294.317261 219.804367,293.816711 218.224289,292.983093 
	C218.040512,291.968170 218.061127,291.549408 218.474167,291.109680 
	C219.914261,291.087097 220.961945,291.085480 222.295929,291.361389 
	C224.870621,291.662781 227.234314,292.059753 229.428513,291.616943 
	C232.231094,291.051270 234.896896,289.807770 237.621643,288.856415 
	C234.005478,287.997894 230.391953,287.127563 226.765839,286.313354 
	C226.570221,286.269470 226.268799,286.696899 225.690216,286.913971 
	C224.928513,286.914703 224.493225,286.906372 223.957077,286.528442 
	C221.568771,285.757019 219.281326,285.355194 216.993896,284.953369 
z"/>
<path fill="#CECECE" opacity="1.000000" stroke="none" 
	d="
M224.057953,286.898071 
	C224.493225,286.906372 224.928513,286.914703 225.803802,287.241272 
	C227.508789,291.949768 222.370529,288.646973 222.009628,291.083862 
	C220.961945,291.085480 219.914261,291.087097 217.998138,291.062866 
	C208.732056,291.057587 200.334412,291.078186 191.568192,291.077087 
	C190.458664,291.065094 189.717712,291.074799 188.768127,290.799164 
	C187.473953,290.058502 186.388443,289.603149 185.302948,289.147797 
	C186.848343,287.679352 188.416901,287.312653 189.997604,287.009216 
	C191.992538,286.626190 193.997375,286.294830 195.997940,285.941193 
	C197.069733,285.935944 198.141510,285.930664 199.611053,285.859924 
	C202.375366,285.826904 204.741943,285.859314 207.884033,285.901550 
	C209.110016,285.871399 209.560455,285.831451 210.010910,285.791504 
	C211.396271,285.843658 212.781616,285.895813 214.852814,286.241058 
	C218.378433,286.655457 221.218185,286.776764 224.057953,286.898071 
z"/>
<path fill="#FCFEFC" opacity="1.000000" stroke="none" 
	d="
M235.477661,151.366257 
	C232.904022,150.396179 230.332977,149.419067 227.755585,148.459091 
	C226.542633,148.007339 225.074799,146.928024 224.140549,147.271225 
	C220.459442,148.623489 219.948242,146.025269 219.024750,143.360580 
	C223.027328,143.183228 227.068207,143.480637 231.106567,143.449738 
	C231.953232,143.443268 233.608414,142.021698 233.502655,141.602600 
	C232.674423,138.320663 231.775299,135.001511 230.370163,131.935760 
	C228.959610,128.858200 229.000900,126.620361 232.655746,125.038544 
	C234.824493,131.529678 236.641052,138.057907 238.844009,145.191467 
	C239.107635,146.856140 238.984879,147.915482 238.862106,148.974823 
	C237.883438,149.567993 236.904770,150.161163 235.779968,151.094238 
	C235.633850,151.434128 235.477661,151.366257 235.477661,151.366257 
z"/>
<path fill="#FCFEFC" opacity="1.000000" stroke="none" 
	d="
M181.998199,292.032288 
	C180.444870,292.687531 178.816650,294.031342 177.351898,293.872040 
	C172.473480,293.341461 167.631287,292.374298 162.829391,291.326141 
	C161.804260,291.102386 161.007172,289.833771 160.105011,289.046509 
	C160.914841,288.136719 161.562851,286.764099 162.567902,286.412689 
	C164.714188,285.662323 167.029846,285.319305 169.304092,285.027740 
	C174.339737,284.382202 179.388000,283.820160 184.443497,283.359955 
	C185.217773,283.289429 186.057938,283.942474 186.652924,284.912811 
	C182.663147,286.098206 178.888062,286.631653 175.112961,287.165100 
	C175.004654,287.869751 174.896362,288.574371 174.788055,289.279022 
	C177.191437,290.196777 179.594818,291.114532 181.998199,292.032288 
z"/>
<path fill="#E1F7FB" opacity="1.000000" stroke="none" 
	d="
M167.875015,117.492149 
	C170.044052,117.582939 173.143860,116.828285 174.169586,117.957558 
	C175.814224,119.768196 176.361130,122.776642 176.830750,125.376602 
	C177.101181,126.873734 176.307434,128.563095 175.992157,130.581741 
	C175.323883,132.753754 174.656174,134.509964 173.701080,136.878448 
	C171.149063,142.088348 171.601028,146.563599 173.965607,151.289658 
	C172.992065,152.079254 172.072876,152.529434 171.079590,152.564407 
	C169.442612,145.131287 169.977127,138.337799 172.890564,131.701218 
	C175.979675,124.664497 174.740555,121.353683 167.875015,117.492149 
z"/>
<path fill="#FCFEFC" opacity="1.000000" stroke="none" 
	d="
M211.021194,135.673599 
	C206.288834,136.363235 201.598297,136.691040 196.461212,137.023865 
	C199.046844,130.268051 202.640396,128.381210 208.391739,129.843414 
	C211.865509,130.726578 212.101257,132.548813 211.021194,135.673599 
z"/>
<path fill="#E9E9E9" opacity="1.000000" stroke="none" 
	d="
M182.398163,292.022736 
	C179.594818,291.114532 177.191437,290.196777 174.788055,289.279022 
	C174.896362,288.574371 175.004654,287.869751 175.112961,287.165100 
	C178.888062,286.631653 182.663147,286.098206 186.718521,285.273315 
	C189.039490,284.981384 191.080170,284.980896 193.557678,284.967316 
	C194.548370,285.124390 195.102264,285.294525 195.827057,285.702942 
	C193.997375,286.294830 191.992538,286.626190 189.997604,287.009216 
	C188.416901,287.312653 186.848343,287.679352 185.302948,289.147797 
	C186.388443,289.603149 187.473953,290.058502 188.561600,291.051392 
	C187.708435,291.746826 186.853119,291.904694 185.997818,292.062561 
	C184.931259,292.046112 183.864685,292.029633 182.398163,292.022736 
z"/>
<path fill="#FCFEFC" opacity="1.000000" stroke="none" 
	d="
M241.589966,114.010330 
	C239.109924,116.803413 236.194138,119.590576 233.140701,122.688660 
	C231.593735,121.043121 230.184433,119.086647 228.164032,116.281837 
	C233.302094,115.381035 237.228149,114.692726 241.589966,114.010330 
z"/>
<path fill="#E9E9E9" opacity="1.000000" stroke="none" 
	d="
M191.936783,291.098816 
	C200.334412,291.078186 208.732056,291.057587 217.605713,291.083801 
	C218.061127,291.549408 218.040512,291.968170 218.011993,292.702942 
	C209.644562,293.015564 201.285065,293.012268 192.452713,292.694336 
	C191.965515,291.952759 191.951141,291.525787 191.936783,291.098816 
z"/>
<path fill="#FCFEFC" opacity="1.000000" stroke="none" 
	d="
M174.019974,150.950241 
	C171.601028,146.563599 171.149063,142.088348 173.694397,137.239075 
	C174.317108,138.679153 174.528473,140.411072 175.033218,142.052780 
	C175.713989,144.267014 176.620560,146.411835 177.729492,148.805267 
	C177.247833,149.688904 176.466949,150.353714 175.091675,151.006531 
	C174.497299,150.994568 174.019974,150.950241 174.019974,150.950241 
z"/>
<path fill="#E9E9E9" opacity="1.000000" stroke="none" 
	d="
M223.957077,286.528442 
	C221.218185,286.776764 218.378433,286.655457 215.269257,286.226990 
	C215.469650,285.618164 215.939484,285.316498 216.701599,284.984100 
	C219.281326,285.355194 221.568771,285.757019 223.957077,286.528442 
z"/>
<path fill="#FCFEFC" opacity="1.000000" stroke="none" 
	d="
M184.760727,145.744659 
	C183.274826,146.694138 181.532379,147.356216 179.402267,148.023285 
	C179.108185,143.464066 182.127991,145.147736 184.760727,145.744659 
z"/>
<path fill="#FCFEFC" opacity="1.000000" stroke="none" 
	d="
M191.568192,291.077087 
	C191.951141,291.525787 191.965515,291.952759 191.983276,292.701538 
	C190.040771,292.940552 188.094879,292.857758 186.073395,292.418762 
	C186.853119,291.904694 187.708435,291.746826 188.770264,291.336731 
	C189.717712,291.074799 190.458664,291.065094 191.568192,291.077087 
z"/>
<path fill="#FCFEFC" opacity="1.000000" stroke="none" 
	d="
M210.001404,285.470032 
	C209.560455,285.831451 209.110016,285.871399 208.324310,285.849152 
	C208.296341,285.012115 208.603653,284.237244 208.910950,283.462341 
	C209.271255,284.024384 209.631577,284.586456 210.001404,285.470032 
z"/>
<path fill="#E1F7FB" opacity="1.000000" stroke="none" 
	d="
M265.944855,239.039337 
	C267.149719,239.046844 268.250153,239.141220 268.970184,239.202957 
	C268.293793,243.464203 267.662750,247.439743 267.060364,251.875336 
	C263.833984,256.368896 260.579010,260.402405 256.814026,264.689270 
	C255.538895,264.301727 254.773804,263.660828 254.325989,262.906219 
	C257.146759,259.905457 259.650269,257.018433 262.138184,254.086639 
	C262.122620,254.041870 262.088989,254.130524 262.342407,254.045959 
	C262.759644,253.654572 262.923492,253.347748 263.045746,253.031372 
	C263.004181,253.021805 263.064789,253.081833 263.344818,252.946442 
	C265.888977,250.869217 266.231598,249.118103 262.982544,247.463348 
	C262.598206,246.530823 262.349945,245.844879 262.358337,244.998001 
	C262.836761,244.297867 263.058472,243.758652 263.293274,243.235016 
	C263.306335,243.250595 263.346283,243.258148 263.652588,243.169235 
	C264.515900,241.819504 265.072906,240.558701 265.629944,239.297897 
	C265.629944,239.297897 265.840424,239.126190 265.944855,239.039337 
z"/>
<path fill="#F4FCFC" opacity="1.000000" stroke="none" 
	d="
M254.008713,263.019928 
	C254.773804,263.660828 255.538895,264.301727 256.617828,264.966003 
	C256.969147,266.043091 257.006592,267.096802 257.083191,268.545837 
	C250.357712,271.698486 254.049744,265.856201 253.051498,263.379425 
	C253.110382,262.839203 253.222855,262.597260 253.427856,262.687073 
	C253.632874,262.776917 254.008713,263.019928 254.008713,263.019928 
z"/>
<path fill="#FFFFFF" opacity="1.000000" stroke="none" 
	d="
M267.835083,142.758926 
	C264.510498,141.242340 264.510498,141.242340 268.620514,137.067993 
	C268.420715,139.697662 268.309204,141.165588 267.835083,142.758926 
z"/>
<path fill="#E1F7FB" opacity="1.000000" stroke="none" 
	d="
M246.121994,265.131805 
	C245.610779,265.695709 244.934143,266.831482 244.612946,266.738556 
	C238.886475,265.081970 235.091492,269.635712 230.335159,270.988678 
	C219.596191,274.043488 208.756805,276.825958 197.572449,273.270905 
	C198.120483,272.829010 198.577744,272.751831 199.363739,272.753296 
	C200.141617,272.811371 200.590729,272.790833 201.470978,272.866638 
	C204.250793,272.886230 206.599472,272.809479 209.326416,272.776703 
	C210.453049,272.717041 211.201416,272.613403 212.334503,272.586761 
	C222.348984,271.035797 231.666046,268.607635 239.705048,262.209229 
	C240.323746,262.127075 240.674622,262.059052 241.235474,262.067932 
	C241.445450,262.144775 241.891937,262.170105 241.949524,262.121399 
	C242.007095,262.072693 241.869827,262.135193 242.019318,262.418030 
	C243.410385,263.418549 244.651932,264.136200 245.949799,264.924011 
	C246.006104,264.994171 246.121994,265.131805 246.121994,265.131805 
z"/>
<path fill="#60A8C9" opacity="1.000000" stroke="none" 
	d="
M199.035004,272.674683 
	C198.577744,272.751831 198.120483,272.829010 197.321762,272.978607 
	C196.549240,272.982422 196.118164,272.913788 195.359283,272.845093 
	C191.800156,271.848480 188.568817,270.851929 185.480713,269.497437 
	C190.094284,270.317902 194.564636,271.496307 199.035004,272.674683 
z"/>
<path fill="#E1F7FB" opacity="1.000000" stroke="none" 
	d="
M253.046356,262.956238 
	C250.936615,263.728271 248.890884,264.383270 246.483582,265.085052 
	C246.121994,265.131805 246.006104,264.994171 246.139435,264.664001 
	C247.311783,262.953705 248.350800,261.573517 249.659348,260.177246 
	C250.286163,260.119202 250.643463,260.077301 251.138153,260.285339 
	C251.924652,261.222626 252.573746,261.909943 253.222855,262.597260 
	C253.222855,262.597260 253.110382,262.839203 253.046356,262.956238 
z"/>
<path fill="#2B75A5" opacity="1.000000" stroke="none" 
	d="
M167.555054,117.434929 
	C174.740555,121.353683 175.979675,124.664497 172.890564,131.701218 
	C169.977127,138.337799 169.442612,145.131287 171.106354,152.919952 
	C173.742935,157.918350 176.278671,162.146011 178.814392,166.373688 
	C180.575409,167.959579 182.336411,169.545471 184.436005,171.158936 
	C184.774567,171.186508 184.799194,171.201019 184.970016,171.502197 
	C189.436768,173.489090 193.732712,175.174820 198.218689,176.955048 
	C198.408752,177.049576 198.832489,177.074951 198.992218,177.389648 
	C202.279007,181.030716 203.500458,184.634247 202.708511,189.446075 
	C200.441208,203.221710 198.723724,217.087769 196.783813,230.917404 
	C196.156906,235.386566 199.724152,243.209579 203.551529,245.204346 
	C204.317612,245.603607 206.042404,245.431686 206.554443,244.847549 
	C210.328232,240.542496 214.201660,236.715714 212.917801,229.674835 
	C210.296127,215.297073 208.736328,200.724686 206.783157,186.226547 
	C206.154526,181.560318 208.841202,178.782822 212.670364,177.048950 
	C216.284531,175.412430 220.077545,174.170868 223.878647,172.855301 
	C223.965408,172.955017 224.139267,173.154160 224.050751,173.495209 
	C221.074234,175.563416 218.299362,177.528870 215.273270,178.965012 
	C209.978271,181.477936 208.203705,183.939880 209.049316,189.751953 
	C210.784439,201.677994 212.856674,213.554855 214.607452,225.478790 
	C215.744202,233.220825 216.180984,240.960464 208.362915,245.944077 
	C206.860260,246.901947 204.584152,247.701797 203.004913,247.285263 
	C198.368454,246.062378 193.402374,237.261673 194.125061,232.414841 
	C196.072815,219.351868 198.143738,206.305435 199.905441,193.217407 
	C200.618057,187.923111 200.813477,182.295090 195.657928,178.836472 
	C192.868011,176.964844 189.428940,176.038071 186.242050,174.788788 
	C184.059280,173.933136 181.806442,173.256256 179.746674,172.554565 
	C179.449677,171.653900 179.425598,170.105774 178.648911,169.452667 
	C170.506805,162.606094 167.953568,153.453201 168.156815,143.407120 
	C168.245453,139.027145 169.199295,134.553818 170.479340,130.341400 
	C171.652878,126.479523 170.739243,121.544037 167.427139,120.355476 
	C163.181793,118.832016 160.204391,120.896538 158.696213,124.731300 
	C157.256607,128.391693 156.430511,132.290131 155.268707,136.063614 
	C151.675446,147.734253 155.808334,158.197784 160.887589,168.217072 
	C164.213974,174.778702 170.011124,180.251617 172.539780,187.019852 
	C177.851837,201.238083 177.789169,216.091400 173.584564,230.747177 
	C172.105072,235.904144 173.749176,245.182648 177.331238,247.753235 
	C179.994995,249.664825 182.837112,251.380356 185.760223,252.867950 
	C193.707489,256.912384 202.326401,257.173798 211.450195,257.004639 
	C213.129288,257.121033 214.351349,257.230957 215.218811,257.555939 
	C201.011337,260.606293 188.170288,258.181702 176.712524,249.860001 
	C174.372925,248.160767 172.964813,245.178986 171.132202,242.337708 
	C171.932144,234.331757 172.714584,226.775162 173.525024,219.221573 
	C174.889343,206.505508 174.922546,194.041595 166.820648,182.846222 
	C166.752335,182.273560 166.603210,181.979523 166.296936,181.383362 
	C163.822556,177.590424 161.426559,174.139481 159.030548,170.688522 
	C158.856033,170.290146 158.681519,169.891769 158.242615,168.946075 
	C157.725616,168.084366 157.472992,167.769958 157.220352,167.455566 
	C150.790405,153.421844 149.722015,139.264099 155.854813,124.778702 
	C157.710968,120.394524 160.492508,117.666397 165.642303,117.063934 
	C166.413757,117.102646 166.824417,117.240173 167.555054,117.434929 
z"/>
<path fill="#FFFFFF" opacity="1.000000" stroke="none" 
	d="
M150.608154,117.533615 
	C151.058472,117.649818 151.334549,117.933434 151.589325,118.235046 
	C151.595825,118.242760 151.368347,118.448112 151.250000,118.561302 
	C150.977036,118.275322 150.704071,117.989349 150.608154,117.533615 
z"/>
<path fill="#42A5D8" opacity="1.000000" stroke="none" 
	d="
M251.000763,260.035370 
	C250.643463,260.077301 250.286163,260.119202 249.257629,260.143372 
	C246.347534,260.795441 244.108688,261.465332 241.869827,262.135193 
	C241.869827,262.135193 242.007095,262.072693 241.919037,261.927734 
	C241.562485,261.852173 241.294006,261.921631 241.025513,261.991058 
	C240.674622,262.059052 240.323746,262.127075 239.298019,262.144653 
	C238.130447,262.109924 237.538712,261.951538 237.159653,262.167114 
	C229.988632,266.245636 222.729019,269.986786 214.181335,270.235321 
	C213.416092,270.257568 212.692657,271.717529 211.949799,272.509766 
	C211.201416,272.613403 210.453049,272.717041 209.032898,272.547455 
	C205.920700,272.439575 203.480270,272.604919 201.039856,272.770294 
	C200.590729,272.790833 200.141617,272.811371 199.363739,272.753296 
	C194.564636,271.496307 190.094284,270.317902 185.208099,269.258728 
	C184.792267,269.377991 184.804230,269.314697 184.739471,268.933533 
	C182.741806,268.102203 180.808929,267.651978 178.876038,267.201782 
	C178.351990,267.013947 177.827942,266.826111 176.995483,266.127869 
	C176.297470,265.469147 175.907852,265.320862 175.518250,265.172546 
	C175.518250,265.172546 175.258530,265.245697 174.982010,264.902588 
	C174.120209,264.384552 173.534912,264.209625 172.949631,264.034668 
	C172.949631,264.034668 172.993576,263.997559 172.878998,263.786865 
	C172.456528,263.435516 172.148621,263.294861 171.840714,263.154236 
	C171.840714,263.154236 171.971909,263.124451 171.807739,262.870422 
	C171.063629,262.439178 170.483704,262.262024 169.903763,262.084839 
	C169.903763,262.084839 170.010117,262.061584 169.954712,261.714966 
	C168.535995,260.606354 167.172684,259.844391 165.809357,259.082428 
	C165.526535,259.039520 165.290863,258.910522 164.921661,258.212585 
	C164.206619,257.459747 163.672256,257.189697 163.137894,256.919647 
	C163.137894,256.919647 163.051392,256.953003 163.042114,256.554016 
	C160.960403,254.157593 158.887955,252.160141 156.815521,250.162704 
	C156.815521,250.162704 156.814392,250.128479 156.859909,249.808716 
	C156.492859,249.097015 156.080307,248.705063 155.667755,248.313110 
	C155.667755,248.313110 155.608017,248.293472 155.703094,247.935043 
	C154.134048,245.739105 152.469894,243.901611 150.805740,242.064117 
	C150.244965,241.238647 149.684189,240.413177 149.253876,239.182297 
	C149.194443,238.558380 149.004562,238.339874 148.814682,238.121384 
	C148.814682,238.121384 148.834671,238.026688 148.896622,237.715714 
	C148.541122,236.670761 148.123672,235.936783 147.706223,235.202805 
	C147.706223,235.202805 147.936783,235.157181 147.917862,234.771347 
	C147.207886,233.300293 146.516830,232.215073 145.825775,231.129852 
	C145.825775,231.129852 145.831070,231.068008 145.898651,230.655029 
	C145.790985,228.778625 145.685654,227.302826 145.429260,225.853760 
	C143.566269,215.324539 141.216904,204.824890 145.327927,194.241699 
	C145.953247,192.631897 145.723129,190.689774 145.888687,188.901367 
	C145.888687,188.901367 145.915024,189.009201 146.226013,188.844025 
	C147.287064,186.624390 148.037109,184.569931 148.787155,182.515488 
	C148.787155,182.515488 148.728149,182.251968 149.052734,182.021545 
	C149.521942,181.469086 149.666595,181.147049 149.811249,180.825027 
	C149.811249,180.825027 149.821686,180.964401 150.116272,180.765625 
	C150.539062,179.889389 150.667267,179.211945 150.795486,178.534485 
	C150.795486,178.534485 150.754776,178.249329 151.191742,178.076050 
	C152.053421,176.901062 152.478149,175.899338 152.902878,174.897614 
	C152.902878,174.897614 152.902359,175.002701 153.276688,174.987732 
	C158.997177,175.851227 159.346161,179.664749 158.618500,184.127594 
	C157.663757,186.088531 157.006134,187.857986 156.361603,189.935059 
	C156.188202,190.825775 156.001709,191.408875 155.457336,192.046082 
	C154.418076,192.942490 153.382126,193.683838 153.109207,194.642395 
	C149.765396,206.387177 150.428741,218.010056 154.804092,229.351425 
	C155.725266,231.739212 157.663574,233.734619 159.076996,235.932114 
	C159.020782,235.953400 159.102936,235.865631 159.066116,236.225601 
	C159.663025,237.397491 160.296753,238.209427 161.019501,239.158813 
	C161.108521,239.296280 161.219360,239.604507 161.163391,239.991211 
	C162.722076,242.271317 164.336731,244.164719 166.115402,246.276978 
	C166.621216,246.590332 166.963013,246.684860 167.256531,246.818405 
	C167.208252,246.857422 167.190323,246.734558 167.244522,247.031708 
	C167.636948,247.514099 167.975189,247.699326 168.591461,248.054276 
	C186.640366,263.806549 208.915588,266.929352 229.913101,256.001892 
	C234.784180,253.466919 238.485687,248.684570 242.965668,244.682526 
	C244.623169,242.645386 246.040344,240.862045 247.730804,238.921387 
	C253.995789,231.194366 256.938995,222.589951 256.839966,212.547012 
	C256.873840,211.130463 256.840210,210.096954 256.910767,208.618683 
	C257.064728,200.491165 255.614029,193.217468 251.136566,186.566650 
	C251.096558,186.375290 250.889908,186.043350 250.888428,185.700256 
	C249.782333,183.619400 248.677734,181.881622 247.552277,180.111038 
	C249.530273,176.991135 251.517776,173.856247 253.505264,170.721359 
	C264.174103,182.972275 268.713165,197.470001 267.537292,213.386398 
	C266.974182,221.008148 264.139557,228.462097 262.236145,236.750443 
	C262.541138,239.425278 262.943726,241.341721 263.346283,243.258148 
	C263.346283,243.258148 263.306335,243.250595 262.977417,243.319717 
	C262.466217,243.978867 262.283936,244.568893 262.101654,245.158920 
	C262.349945,245.844879 262.598206,246.530823 262.942139,247.913086 
	C263.046814,250.100220 263.055817,251.591019 263.064789,253.081833 
	C263.064789,253.081833 263.004181,253.021805 262.799469,253.128143 
	C262.426147,253.533173 262.257568,253.831848 262.088989,254.130524 
	C262.088989,254.130524 262.122620,254.041870 261.774200,254.068970 
	C257.950775,256.075836 254.475769,258.055603 251.000763,260.035370 
z"/>
<path fill="#60A8C9" opacity="1.000000" stroke="none" 
	d="
M145.611359,189.138458 
	C145.723129,190.689774 145.953247,192.631897 145.327927,194.241699 
	C141.216904,204.824890 143.566269,215.324539 145.429260,225.853760 
	C145.685654,227.302826 145.790985,228.778625 145.921112,230.676453 
	C140.114304,217.271545 140.340668,203.354492 145.611359,189.138458 
z"/>
<path fill="#C7EEF7" opacity="1.000000" stroke="none" 
	d="
M158.502167,170.782318 
	C161.426559,174.139481 163.822556,177.590424 166.001221,181.578979 
	C165.519440,182.740677 165.255020,183.364761 164.572449,184.003235 
	C162.758560,184.001831 161.362823,183.986038 160.010651,183.620789 
	C161.963669,181.022217 162.300781,178.916840 160.120026,176.465683 
	C158.752197,174.928238 157.963730,172.875336 156.915329,171.053696 
	C157.268158,170.994507 157.620972,170.935318 158.502167,170.782318 
z"/>
<path fill="#60A8C9" opacity="1.000000" stroke="none" 
	d="
M156.570297,171.010986 
	C157.963730,172.875336 158.752197,174.928238 160.120026,176.465683 
	C162.300781,178.916840 161.963669,181.022217 160.021988,183.625977 
	C159.989777,183.980637 159.972260,183.967194 159.753845,183.987076 
	C159.535416,184.006958 159.107208,184.103043 159.060059,184.060455 
	C159.012924,184.017853 158.915619,183.936127 158.915619,183.936127 
	C159.346161,179.664749 158.997177,175.851227 153.261810,174.937042 
	C153.990158,173.590286 155.107712,172.279266 156.570297,171.010986 
z"/>
<path fill="#60A8C9" opacity="1.000000" stroke="none" 
	d="
M156.878723,250.491333 
	C158.887955,252.160141 160.960403,254.157593 163.056778,256.510040 
	C161.034439,254.850037 158.988174,252.835007 156.878723,250.491333 
z"/>
<path fill="#60A8C9" opacity="1.000000" stroke="none" 
	d="
M150.874619,242.409210 
	C152.469894,243.901611 154.134048,245.739105 155.671814,247.938080 
	C154.011444,246.451141 152.477478,244.602722 150.874619,242.409210 
z"/>
<path fill="#60A8C9" opacity="1.000000" stroke="none" 
	d="
M179.125961,267.451965 
	C180.808929,267.651978 182.741806,268.102203 184.749786,268.903015 
	C183.008545,268.736481 181.192215,268.219299 179.125961,267.451965 
z"/>
<path fill="#60A8C9" opacity="1.000000" stroke="none" 
	d="
M148.508102,182.751999 
	C148.037109,184.569931 147.287064,186.624390 146.190643,188.801239 
	C146.639191,186.945282 147.434113,184.966888 148.508102,182.751999 
z"/>
<path fill="#60A8C9" opacity="1.000000" stroke="none" 
	d="
M165.985474,259.361084 
	C167.172684,259.844391 168.535995,260.606354 169.907898,261.742859 
	C168.664871,261.291504 167.413239,260.465607 165.985474,259.361084 
z"/>
<path fill="#60A8C9" opacity="1.000000" stroke="none" 
	d="
M145.832870,231.467377 
	C146.516830,232.215073 147.207886,233.300293 147.800415,234.774994 
	C147.081253,234.044601 146.460617,232.924744 145.832870,231.467377 
z"/>
<path fill="#60A8C9" opacity="1.000000" stroke="none" 
	d="
M152.623077,175.053864 
	C152.478149,175.899338 152.053421,176.901062 151.268494,177.954163 
	C151.386597,177.073730 151.864929,176.141922 152.623077,175.053864 
z"/>
<path fill="#60A8C9" opacity="1.000000" stroke="none" 
	d="
M147.676147,235.533798 
	C148.123672,235.936783 148.541122,236.670761 148.910339,237.762115 
	C148.456757,237.367920 148.051407,236.616364 147.676147,235.533798 
z"/>
<path fill="#60A8C9" opacity="1.000000" stroke="none" 
	d="
M173.126923,264.287262 
	C173.534912,264.209625 174.120209,264.384552 174.866272,264.833252 
	C174.452774,264.917969 173.878494,264.728912 173.126923,264.287262 
z"/>
<path fill="#60A8C9" opacity="1.000000" stroke="none" 
	d="
M163.258026,257.190186 
	C163.672256,257.189697 164.206619,257.459747 164.820557,258.034424 
	C164.392807,258.046295 163.885483,257.753510 163.258026,257.190186 
z"/>
<path fill="#60A8C9" opacity="1.000000" stroke="none" 
	d="
M150.544952,178.757355 
	C150.667267,179.211945 150.539062,179.889389 150.080231,180.705750 
	C149.931183,180.223190 150.112793,179.601715 150.544952,178.757355 
z"/>
<path fill="#60A8C9" opacity="1.000000" stroke="none" 
	d="
M155.662170,248.607925 
	C156.080307,248.705063 156.492859,249.097015 156.875610,249.814789 
	C156.449387,249.727966 156.052979,249.315353 155.662170,248.607925 
z"/>
<path fill="#60A8C9" opacity="1.000000" stroke="none" 
	d="
M170.054871,262.347076 
	C170.483704,262.262024 171.063629,262.439178 171.756531,262.914001 
	C171.314972,263.010895 170.760468,262.810120 170.054871,262.347076 
z"/>
<path fill="#60A8C9" opacity="1.000000" stroke="none" 
	d="
M148.825806,238.350952 
	C149.004562,238.339874 149.194443,238.558380 149.224487,238.878342 
	C149.064667,238.979797 148.836929,238.580521 148.825806,238.350952 
z"/>
<path fill="#C7EEF7" opacity="1.000000" stroke="none" 
	d="
M157.230469,167.774155 
	C157.472992,167.769958 157.725616,168.084366 158.022705,168.703400 
	C157.791641,168.702927 157.516113,168.397842 157.230469,167.774155 
z"/>
<path fill="#60A8C9" opacity="1.000000" stroke="none" 
	d="
M175.695221,265.419678 
	C175.907852,265.320862 176.297470,265.469147 176.815109,265.912842 
	C176.586166,266.027740 176.229187,265.847260 175.695221,265.419678 
z"/>
<path fill="#60A8C9" opacity="1.000000" stroke="none" 
	d="
M149.553696,180.924759 
	C149.666595,181.147049 149.521942,181.469086 149.128448,181.909760 
	C149.018433,181.693756 149.157288,181.359131 149.553696,180.924759 
z"/>
<path fill="#60A8C9" opacity="1.000000" stroke="none" 
	d="
M171.937012,263.400177 
	C172.148621,263.294861 172.456528,263.435516 172.872681,263.814880 
	C172.665054,263.917786 172.349182,263.781952 171.937012,263.400177 
z"/>
<path fill="#1A6EA5" opacity="1.000000" stroke="none" 
	d="
M237.670227,133.155716 
	C234.207550,125.640396 235.079544,120.875244 240.382492,118.334373 
	C245.608612,115.830299 250.689484,117.908043 253.308609,123.850922 
	C259.389618,137.648880 259.435455,151.473251 252.800720,165.752640 
	C251.641373,167.201370 250.876587,168.156372 250.080994,168.699661 
	C250.868820,165.664062 251.805969,163.070221 252.480057,160.409714 
	C253.686203,155.649323 255.930893,150.756073 255.569244,146.086594 
	C255.016876,138.954849 252.702866,131.945267 250.969681,124.925056 
	C250.046555,121.185921 246.684402,119.834564 241.645752,121.081116 
	C238.071182,121.965454 237.556229,124.301384 238.618713,127.603004 
	C239.157318,129.276642 238.876556,131.213943 238.641205,133.052063 
	C238.100845,133.099945 237.885544,133.127838 237.670227,133.155716 
z"/>
<path fill="#C7EEF7" opacity="1.000000" stroke="none" 
	d="
M250.111816,169.111374 
	C250.876587,168.156372 251.641373,167.201370 252.682709,166.096649 
	C253.051041,167.390823 253.142838,168.834717 253.369934,170.500000 
	C251.517776,173.856247 249.530273,176.991135 247.552277,180.111038 
	C248.677734,181.881622 249.782333,183.619400 250.553864,185.656342 
	C246.009781,182.701508 243.268524,186.931046 239.901154,187.614746 
	C240.327698,185.875275 240.756058,184.502975 241.150208,183.101624 
	C241.116013,183.072586 241.090912,183.158737 241.349579,183.073334 
	C241.766602,182.669052 241.924957,182.350189 242.045532,182.021851 
	C242.007721,182.012405 242.054794,182.074509 242.357498,181.902618 
	C245.147110,177.512848 247.634018,173.294968 250.099640,169.077789 
	C250.078339,169.078491 250.111816,169.111374 250.111816,169.111374 
z"/>
<path fill="#2B75A5" opacity="1.000000" stroke="none" 
	d="
M238.923462,149.361328 
	C238.984879,147.915482 239.107635,146.856140 239.149185,145.402267 
	C238.954010,142.316406 238.840057,139.625076 239.043793,136.479645 
	C239.561783,136.028091 239.762085,136.030624 240.138855,136.409668 
	C242.423096,147.187698 240.791656,156.785690 234.753128,165.706299 
	C233.151825,168.071884 231.694382,169.398590 228.877213,168.930557 
	C233.708786,163.306854 238.041748,157.420441 238.923462,149.361328 
z"/>
<path fill="#60A8C9" opacity="1.000000" stroke="none" 
	d="
M263.652588,243.169235 
	C262.943726,241.341721 262.541138,239.425278 262.170166,237.089905 
	C263.180969,237.425613 264.160126,238.180267 265.384644,239.116425 
	C265.072906,240.558701 264.515900,241.819504 263.652588,243.169235 
z"/>
<path fill="#2B75A5" opacity="1.000000" stroke="none" 
	d="
M237.725281,133.483582 
	C237.885544,133.127838 238.100845,133.099945 238.657028,133.286377 
	C238.997894,133.500687 239.020660,133.970566 238.950745,134.374161 
	C238.806732,135.040588 238.732635,135.303406 238.658554,135.566238 
	C238.365814,134.981308 238.073059,134.396393 237.725281,133.483582 
z"/>
<path fill="#1A6EA5" opacity="1.000000" stroke="none" 
	d="
M238.627441,135.695221 
	C238.732635,135.303406 238.806732,135.040588 239.193588,134.552429 
	C239.658371,134.895798 239.810379,135.464478 239.962372,136.033157 
	C239.762085,136.030624 239.561783,136.028091 239.060638,136.029419 
	C238.759796,136.033279 238.596329,135.824219 238.627441,135.695221 
z"/>
<path fill="#036EB9" opacity="1.000000" stroke="none" 
	d="
M240.138855,136.409668 
	C239.810379,135.464478 239.658371,134.895798 239.263519,134.148834 
	C239.020660,133.970566 238.997894,133.500687 238.982056,133.266357 
	C238.876556,131.213943 239.157318,129.276642 238.618713,127.603004 
	C237.556229,124.301384 238.071182,121.965454 241.645752,121.081116 
	C246.684402,119.834564 250.046555,121.185921 250.969681,124.925056 
	C252.702866,131.945267 255.016876,138.954849 255.569244,146.086594 
	C255.930893,150.756073 253.686203,155.649323 252.480057,160.409714 
	C251.805969,163.070221 250.868820,165.664062 250.080994,168.699661 
	C250.111816,169.111374 250.078339,169.078491 249.739136,169.082977 
	C245.184631,172.417160 241.545074,176.072464 242.054794,182.074509 
	C242.054794,182.074509 242.007721,182.012405 241.798523,182.126389 
	C241.423187,182.546494 241.257065,182.852615 241.090912,183.158752 
	C241.090912,183.158737 241.116013,183.072586 240.768890,183.089844 
	C239.411713,183.889450 237.857803,184.469833 237.480103,185.486969 
	C235.070389,191.976410 232.564178,198.552444 233.073883,205.617249 
	C233.665619,213.818878 234.431030,222.031143 235.664810,230.156204 
	C236.705704,237.010986 232.803619,244.278015 226.856979,245.604294 
	C226.856979,247.265472 227.428726,249.873352 226.743530,250.261322 
	C225.075684,251.205673 222.736160,251.661926 220.824677,251.349854 
	C214.517639,250.320190 212.216339,251.472122 210.993179,256.998169 
	C202.326401,257.173798 193.707489,256.912384 185.760223,252.867950 
	C182.837112,251.380356 179.994995,249.664825 177.331238,247.753235 
	C173.749176,245.182648 172.105072,235.904144 173.584564,230.747177 
	C177.789169,216.091400 177.851837,201.238083 172.539780,187.019852 
	C170.011124,180.251617 164.213974,174.778702 160.887589,168.217072 
	C155.808334,158.197784 151.675446,147.734253 155.268707,136.063614 
	C156.430511,132.290131 157.256607,128.391693 158.696213,124.731300 
	C160.204391,120.896538 163.181793,118.832016 167.427139,120.355476 
	C170.739243,121.544037 171.652878,126.479523 170.479340,130.341400 
	C169.199295,134.553818 168.245453,139.027145 168.156815,143.407120 
	C167.953568,153.453201 170.506805,162.606094 178.648911,169.452667 
	C179.425598,170.105774 179.449677,171.653900 179.746674,172.554565 
	C181.806442,173.256256 184.059280,173.933136 186.242050,174.788788 
	C189.428940,176.038071 192.868011,176.964844 195.657928,178.836472 
	C200.813477,182.295090 200.618057,187.923111 199.905441,193.217407 
	C198.143738,206.305435 196.072815,219.351868 194.125061,232.414841 
	C193.402374,237.261673 198.368454,246.062378 203.004913,247.285263 
	C204.584152,247.701797 206.860260,246.901947 208.362915,245.944077 
	C216.180984,240.960464 215.744202,233.220825 214.607452,225.478790 
	C212.856674,213.554855 210.784439,201.677994 209.049316,189.751953 
	C208.203705,183.939880 209.978271,181.477936 215.273270,178.965012 
	C218.299362,177.528870 221.074234,175.563416 224.432404,173.445160 
	C225.899399,171.966064 226.896210,170.878052 227.893036,169.790039 
	C227.966080,169.468491 228.145889,169.226151 228.654846,168.996796 
	C231.694382,169.398590 233.151825,168.071884 234.753128,165.706299 
	C240.791656,156.785690 242.423096,147.187698 240.138855,136.409668 
z"/>
<path fill="#0E6FB1" opacity="1.000000" stroke="none" 
	d="
M194.058716,164.944641 
	C186.402527,156.099060 188.475922,148.585999 193.178345,143.476410 
	C198.813171,137.353668 209.024399,136.999649 215.161835,142.568146 
	C221.381851,148.211533 221.625244,157.385834 215.718063,163.985016 
	C215.276077,164.478760 214.753357,164.900269 213.870865,165.675812 
	C213.156662,166.108414 212.940781,166.322464 212.424622,166.736115 
	C205.638412,169.942856 199.772430,168.132767 194.038269,164.949127 
	C194.024017,164.960190 194.058716,164.944641 194.058716,164.944641 
z"/>
<path fill="#FCFEFC" opacity="1.000000" stroke="none" 
	d="
M212.825928,166.638382 
	C212.940781,166.322464 213.156662,166.108414 213.707092,165.971405 
	C218.333389,165.376678 222.726166,164.806793 228.208328,164.095566 
	C227.148300,166.877670 226.654770,168.173004 226.194748,169.822327 
	C226.228256,170.176346 226.213638,170.150177 225.943085,170.200836 
	C225.470932,170.543671 225.269348,170.835876 225.054260,171.076584 
	C225.040756,171.025085 225.118790,171.097534 224.711121,171.059296 
	C221.509430,170.350372 218.715408,169.679672 215.921402,169.008987 
	C216.181107,169.449265 216.440826,169.889557 216.700531,170.329849 
	C215.323563,171.884628 214.171448,173.760223 212.517273,174.919449 
	C209.996948,176.685638 207.129105,177.955963 204.270660,179.512085 
	C203.019272,178.951279 200.925873,178.013123 198.832489,177.074951 
	C198.832489,177.074951 198.408752,177.049576 198.201645,176.581665 
	C193.596085,174.476166 189.197647,172.838593 184.799194,171.201019 
	C184.799194,171.201019 184.774567,171.186508 184.766113,171.202637 
	C184.921539,169.233444 184.522446,166.961838 185.358292,165.318283 
	C187.572189,160.964905 190.607590,164.796143 193.680145,164.957520 
	C194.058716,164.944641 194.024017,164.960190 194.056335,165.314880 
	C196.283798,167.109085 198.314255,169.046265 200.722092,169.843124 
	C202.970123,170.587097 205.706131,169.737747 208.070526,170.277145 
	C211.464310,171.051346 212.656601,169.701172 212.825928,166.638382 
z"/>
<path fill="#42A5D8" opacity="1.000000" stroke="none" 
	d="
M177.165817,153.100769 
	C180.158005,152.043137 183.150208,150.985504 186.217606,149.901291 
	C188.435211,161.787445 188.128586,162.376984 179.379822,162.509674 
	C177.906219,160.406891 176.581177,158.783310 176.072235,156.934998 
	C175.770813,155.840286 176.758041,154.390747 177.165817,153.100769 
z"/>
<path fill="#60A8C9" opacity="1.000000" stroke="none" 
	d="
M231.116318,152.871964 
	C232.160889,152.987381 233.205475,153.102798 234.626282,153.112579 
	C235.002533,153.006943 234.974060,152.990417 234.974060,152.990417 
	C234.325943,154.992722 233.989151,157.178284 232.947006,158.948639 
	C231.774628,160.940277 231.459518,164.617706 227.533203,163.116333 
	C224.105713,161.805710 220.412064,160.580750 222.977646,155.484482 
	C224.330627,158.002716 224.749893,161.871826 228.419464,160.665726 
	C230.956879,159.831741 232.482483,156.657608 231.113968,153.362823 
	C231.056122,153.223572 231.112915,153.036667 231.116318,152.871964 
z"/>
<path fill="#42A5D8" opacity="1.000000" stroke="none" 
	d="
M231.106812,152.884933 
	C231.112915,153.036667 231.056122,153.223572 231.113968,153.362823 
	C232.482483,156.657608 230.956879,159.831741 228.419464,160.665726 
	C224.749893,161.871826 224.330627,158.002716 223.206909,155.185425 
	C222.903870,154.524841 222.890701,154.092285 223.375366,153.335602 
	C226.279312,152.979172 228.685410,152.946899 231.091522,152.914642 
	C231.091522,152.914642 231.097305,152.897903 231.106812,152.884933 
z"/>
<path fill="#C7EEF7" opacity="1.000000" stroke="none" 
	d="
M176.834839,153.028214 
	C176.758041,154.390747 175.770813,155.840286 176.072235,156.934998 
	C176.581177,158.783310 177.906219,160.406891 178.977097,162.448883 
	C179.014771,163.673737 178.963425,164.574677 178.863235,165.924652 
	C176.278671,162.146011 173.742935,157.918350 171.180450,153.335144 
	C172.072876,152.529434 172.992065,152.079254 173.965607,151.289658 
	C174.019974,150.950241 174.497299,150.994568 174.735260,151.021896 
	C175.483444,151.684692 175.993652,152.320175 176.834839,153.028214 
z"/>
<path fill="#60A8C9" opacity="1.000000" stroke="none" 
	d="
M230.879791,152.634583 
	C228.685410,152.946899 226.279312,152.979172 223.423645,153.013947 
	C222.750305,151.990616 222.526505,150.964798 222.106750,149.040771 
	C225.441208,150.331406 228.054642,151.342957 230.879791,152.634583 
z"/>
<path fill="#2B75A5" opacity="1.000000" stroke="none" 
	d="
M227.614563,169.840317 
	C226.896210,170.878052 225.899399,171.966064 224.520920,173.104111 
	C224.139267,173.154160 223.965408,172.955017 224.029388,172.628876 
	C224.435196,171.901016 224.776993,171.499283 225.118790,171.097534 
	C225.118790,171.097534 225.040756,171.025085 225.322845,171.019104 
	C225.807831,170.725464 226.010727,170.437820 226.213623,170.150177 
	C226.213638,170.150177 226.228256,170.176346 226.240845,170.186371 
	C226.614334,170.094482 226.975204,169.992538 227.614563,169.840317 
z"/>
<path fill="#60A8C9" opacity="1.000000" stroke="none" 
	d="
M235.419769,151.648270 
	C235.477661,151.366257 235.633850,151.434128 235.710022,151.471649 
	C235.638702,151.917770 235.491226,152.326385 235.158905,152.862701 
	C234.974060,152.990417 235.002533,153.006943 235.012207,153.020996 
	C235.135223,152.666794 235.248550,152.298538 235.419769,151.648270 
z"/>
<path fill="#E9E9E9" opacity="1.000000" stroke="none" 
	d="
M222.295929,291.361389 
	C222.370529,288.646973 227.508789,291.949768 226.130234,287.232239 
	C226.268799,286.696899 226.570221,286.269470 226.765839,286.313354 
	C230.391953,287.127563 234.005478,287.997894 237.621643,288.856415 
	C234.896896,289.807770 232.231094,291.051270 229.428513,291.616943 
	C227.234314,292.059753 224.870621,291.662781 222.295929,291.361389 
z"/>
<path fill="#60A8C9" opacity="1.000000" stroke="none" 
	d="
M251.138153,260.285339 
	C254.475769,258.055603 257.950775,256.075836 261.789795,254.113739 
	C259.650269,257.018433 257.146759,259.905457 254.325989,262.906219 
	C254.008713,263.019928 253.632874,262.776917 253.427856,262.687073 
	C252.573746,261.909943 251.924652,261.222626 251.138153,260.285339 
z"/>
<path fill="#60A8C9" opacity="1.000000" stroke="none" 
	d="
M263.344818,252.946442 
	C263.055817,251.591019 263.046814,250.100220 263.078186,248.159668 
	C266.231598,249.118103 265.888977,250.869217 263.344818,252.946442 
z"/>
<path fill="#60A8C9" opacity="1.000000" stroke="none" 
	d="
M262.358337,244.998001 
	C262.283936,244.568893 262.466217,243.978867 262.964355,243.304138 
	C263.058472,243.758652 262.836761,244.297867 262.358337,244.998001 
z"/>
<path fill="#60A8C9" opacity="1.000000" stroke="none" 
	d="
M262.342407,254.045944 
	C262.257568,253.831848 262.426147,253.533173 262.841034,253.137711 
	C262.923492,253.347748 262.759644,253.654572 262.342407,254.045944 
z"/>
<path fill="#60A8C9" opacity="1.000000" stroke="none" 
	d="
M212.334518,272.586761 
	C212.692657,271.717529 213.416092,270.257568 214.181335,270.235321 
	C222.729019,269.986786 229.988632,266.245636 237.159653,262.167114 
	C237.538712,261.951538 238.130447,262.109924 239.030212,262.158813 
	C231.666046,268.607635 222.348984,271.035797 212.334518,272.586761 
z"/>
<path fill="#60A8C9" opacity="1.000000" stroke="none" 
	d="
M242.019318,262.418030 
	C244.108688,261.465332 246.347534,260.795441 248.988113,260.159485 
	C248.350800,261.573517 247.311783,262.953705 246.083130,264.593872 
	C244.651932,264.136200 243.410385,263.418549 242.019318,262.418030 
z"/>
<path fill="#60A8C9" opacity="1.000000" stroke="none" 
	d="
M201.470978,272.866638 
	C203.480270,272.604919 205.920700,272.439575 208.654633,272.503448 
	C206.599472,272.809479 204.250793,272.886230 201.470978,272.866638 
z"/>
<path fill="#60A8C9" opacity="1.000000" stroke="none" 
	d="
M241.235474,262.067932 
	C241.294006,261.921631 241.562485,261.852173 241.861450,261.976440 
	C241.891937,262.170105 241.445450,262.144775 241.235474,262.067932 
z"/>
<path fill="#F4FCFC" opacity="1.000000" stroke="none" 
	d="
M159.978439,183.975433 
	C161.362823,183.986038 162.758560,184.001831 164.578491,184.009644 
	C165.002701,184.001663 165.016357,184.011627 165.096512,184.188202 
	C165.454056,184.240982 165.731461,184.117188 166.227661,183.780899 
	C166.570526,183.407272 166.694580,183.246140 166.818619,183.085007 
	C174.922546,194.041595 174.889343,206.505508 173.525024,219.221573 
	C172.714584,226.775162 171.932144,234.331757 171.073486,242.728851 
	C170.095779,244.682495 169.181686,245.794281 168.003326,246.831390 
	C167.556168,246.749313 167.373245,246.741928 167.190323,246.734558 
	C167.190323,246.734558 167.208252,246.857422 167.281021,246.601562 
	C167.353790,246.345718 167.309494,245.908493 167.405670,245.747925 
	C167.098206,245.361130 166.694595,245.134903 166.166962,244.741241 
	C166.042953,244.573807 165.899017,244.182739 165.840118,243.920319 
	C165.499451,243.452942 165.217682,243.247971 164.967682,243.023560 
	C164.999481,243.004120 164.954254,243.063416 164.878815,242.823547 
	C164.542358,242.384109 164.281311,242.184555 163.762970,241.814575 
	C163.054337,240.970093 162.603043,240.296066 162.099945,239.369263 
	C161.719406,238.738159 161.390656,238.359833 161.031311,237.988281 
	C161.000702,237.995071 161.037811,237.944550 161.021637,237.642715 
	C160.638855,236.904602 160.272278,236.468338 159.707947,235.976196 
	C159.510208,235.920334 159.102936,235.865631 159.102936,235.865631 
	C159.102936,235.865631 159.020782,235.953400 159.049576,235.561035 
	C152.099121,221.221710 150.872223,206.839981 155.815216,191.991959 
	C156.001709,191.408875 156.188202,190.825775 156.611115,189.792221 
	C157.203079,188.890793 157.558640,188.439819 158.181152,187.831970 
	C158.619247,187.103180 158.790405,186.531265 158.981293,185.978546 
	C159.001038,185.997711 158.949966,185.977661 159.214600,185.824554 
	C159.643570,185.103363 159.807907,184.535278 159.972260,183.967194 
	C159.972260,183.967194 159.989777,183.980637 159.978439,183.975433 
z"/>
<path fill="#E1F7FB" opacity="1.000000" stroke="none" 
	d="
M224.711121,171.059296 
	C224.776993,171.499283 224.435196,171.901016 223.942627,172.529175 
	C220.077545,174.170868 216.284531,175.412430 212.670364,177.048950 
	C208.841202,178.782822 206.154526,181.560318 206.783157,186.226547 
	C208.736328,200.724686 210.296127,215.297073 212.917801,229.674835 
	C214.201660,236.715714 210.328232,240.542496 206.554443,244.847549 
	C206.042404,245.431686 204.317612,245.603607 203.551529,245.204346 
	C199.724152,243.209579 196.156906,235.386566 196.783813,230.917404 
	C198.723724,217.087769 200.441208,203.221710 202.708511,189.446075 
	C203.500458,184.634247 202.279007,181.030716 198.992218,177.389648 
	C200.925873,178.013123 203.019272,178.951279 204.270660,179.512085 
	C207.129105,177.955963 209.996948,176.685638 212.517273,174.919449 
	C214.171448,173.760223 215.323563,171.884628 216.700531,170.329849 
	C216.440826,169.889557 216.181107,169.449265 215.921402,169.008987 
	C218.715408,169.679672 221.509430,170.350372 224.711121,171.059296 
z"/>
<path fill="#C7EEF7" opacity="1.000000" stroke="none" 
	d="
M168.267578,246.906082 
	C169.181686,245.794281 170.095779,244.682495 171.068588,243.179565 
	C172.964813,245.178986 174.372925,248.160767 176.712524,249.860001 
	C188.170288,258.181702 201.011337,260.606293 215.583771,257.565613 
	C221.705505,254.952026 227.101288,252.529404 232.511719,250.139938 
	C237.337311,248.008743 238.637177,243.786346 238.538757,239.141190 
	C238.447266,234.821747 237.843857,230.490891 237.175827,226.210312 
	C235.514069,215.562057 233.646469,204.939148 237.676529,194.835632 
	C238.336197,212.274567 238.862000,229.243591 239.390701,246.305878 
	C240.641922,245.791992 241.683640,245.364151 242.725372,244.936310 
	C238.485687,248.684570 234.784180,253.466919 229.913101,256.001892 
	C208.915588,266.929352 186.640366,263.806549 168.552139,247.810913 
	C168.234772,247.397812 168.267593,246.906082 168.267578,246.906082 
z"/>
<path fill="#1A6EA5" opacity="1.000000" stroke="none" 
	d="
M237.542648,194.365707 
	C233.646469,204.939148 235.514069,215.562057 237.175827,226.210312 
	C237.843857,230.490891 238.447266,234.821747 238.538757,239.141190 
	C238.637177,243.786346 237.337311,248.008743 232.511719,250.139938 
	C227.101288,252.529404 221.705505,254.952026 215.938385,257.350555 
	C214.351349,257.230957 213.129288,257.121033 211.450195,257.004639 
	C212.216339,251.472122 214.517639,250.320190 220.824677,251.349854 
	C222.736160,251.661926 225.075684,251.205673 226.743530,250.261322 
	C227.428726,249.873352 226.856979,247.265472 226.856979,245.604294 
	C232.803619,244.278015 236.705704,237.010986 235.664810,230.156204 
	C234.431030,222.031143 233.665619,213.818878 233.073883,205.617249 
	C232.564178,198.552444 235.070389,191.976410 237.480103,185.486969 
	C237.857803,184.469833 239.411713,183.889450 240.803101,183.118896 
	C240.756058,184.502975 240.327698,185.875275 239.798996,187.729782 
	C239.698639,188.211990 239.703262,188.519714 239.437439,188.756561 
	C238.777802,190.330307 238.383987,191.667191 237.855560,193.210144 
	C237.564865,193.714584 237.505432,194.031082 237.542648,194.365707 
z"/>
<path fill="#E1F7FB" opacity="1.000000" stroke="none" 
	d="
M184.970016,171.502197 
	C189.197647,172.838593 193.596085,174.476166 198.011597,176.487137 
	C193.732712,175.174820 189.436768,173.489090 184.970016,171.502197 
z"/>
<path fill="#F4FCFC" opacity="1.000000" stroke="none" 
	d="
M164.996643,183.995270 
	C165.255020,183.364761 165.519440,182.740677 166.079590,181.920959 
	C166.603210,181.979523 166.752335,182.273560 166.820648,182.846222 
	C166.694580,183.246140 166.570526,183.407272 165.979446,183.783295 
	C165.512405,183.998199 165.016357,184.011627 165.016357,184.011627 
	C165.016357,184.011627 165.002701,184.001663 164.996643,183.995270 
z"/>
<path fill="#FCFEFC" opacity="1.000000" stroke="none" 
	d="
M237.676529,194.835632 
	C237.505432,194.031082 237.564865,193.714584 238.235779,193.126862 
	C239.068161,191.398254 239.385712,189.958984 239.703278,188.519714 
	C239.703262,188.519714 239.698639,188.211990 239.800812,188.096954 
	C243.268524,186.931046 246.009781,182.701508 250.555359,185.999435 
	C250.889908,186.043350 251.096558,186.375290 251.077164,186.978760 
	C252.327545,192.715271 253.559250,197.858185 254.885788,202.976547 
	C255.418839,205.033279 256.160065,207.036072 256.806580,209.063431 
	C256.840210,210.096954 256.873840,211.130463 256.490295,212.659714 
	C253.534897,221.593216 252.447159,230.602753 246.433304,237.692154 
	C246.348175,237.792511 247.097610,238.600815 247.457535,239.078705 
	C246.040344,240.862045 244.623169,242.645386 242.965668,244.682526 
	C241.683640,245.364151 240.641922,245.791992 239.390701,246.305878 
	C238.862000,229.243591 238.336197,212.274567 237.676529,194.835632 
z"/>
<path fill="#60A8C9" opacity="1.000000" stroke="none" 
	d="
M155.457336,192.046082 
	C150.872223,206.839981 152.099121,221.221710 159.105789,235.539764 
	C157.663574,233.734619 155.725266,231.739212 154.804092,229.351425 
	C150.428741,218.010056 149.765396,206.387177 153.109207,194.642395 
	C153.382126,193.683838 154.418076,192.942490 155.457336,192.046082 
z"/>
<path fill="#C7EEF7" opacity="1.000000" stroke="none" 
	d="
M247.730804,238.921387 
	C247.097610,238.600815 246.348175,237.792511 246.433304,237.692154 
	C252.447159,230.602753 253.534897,221.593216 256.422791,213.042740 
	C256.938995,222.589951 253.995789,231.194366 247.730804,238.921387 
z"/>
<path fill="#C7EEF7" opacity="1.000000" stroke="none" 
	d="
M256.910767,208.618683 
	C256.160065,207.036072 255.418839,205.033279 254.885788,202.976547 
	C253.559250,197.858185 252.327545,192.715271 251.117188,187.170105 
	C255.614029,193.217468 257.064728,200.491165 256.910767,208.618683 
z"/>
<path fill="#60A8C9" opacity="1.000000" stroke="none" 
	d="
M165.899017,244.182739 
	C165.899017,244.182739 166.042953,244.573807 166.141220,244.940079 
	C166.239487,245.306351 166.303360,245.701538 166.214752,245.790070 
	C166.126160,245.878616 165.951401,246.058121 165.951401,246.058121 
	C164.336731,244.164719 162.722076,242.271317 161.395508,240.032410 
	C161.683609,239.686890 162.151733,239.622040 162.151733,239.622040 
	C162.603043,240.296066 163.054337,240.970093 163.826263,242.062515 
	C164.416000,242.675064 164.685120,242.869247 164.954254,243.063416 
	C164.954254,243.063416 164.999481,243.004120 165.049301,243.271271 
	C165.365753,243.753204 165.632385,243.967972 165.899017,244.182739 
z"/>
<path fill="#60A8C9" opacity="1.000000" stroke="none" 
	d="
M157.914200,187.988846 
	C157.558640,188.439819 157.203079,188.890793 156.598007,189.484619 
	C157.006134,187.857986 157.663757,186.088531 158.618500,184.127594 
	C158.915619,183.936127 159.012924,184.017853 159.022644,184.371887 
	C159.004898,185.143158 158.977432,185.560410 158.949966,185.977661 
	C158.949966,185.977661 159.001038,185.997711 158.729736,186.147827 
	C158.277023,186.861588 158.095612,187.425217 157.914200,187.988846 
z"/>
<path fill="#60A8C9" opacity="1.000000" stroke="none" 
	d="
M159.066116,236.225601 
	C159.102936,235.865631 159.510208,235.920334 159.738861,236.271484 
	C160.324295,237.063278 160.681061,237.503906 161.037811,237.944550 
	C161.037811,237.944550 161.000702,237.995071 160.991699,238.247406 
	C160.965286,238.673615 160.947891,238.847473 160.930481,239.021347 
	C160.296753,238.209427 159.663025,237.397491 159.066116,236.225601 
z"/>
<path fill="#C7EEF7" opacity="1.000000" stroke="none" 
	d="
M161.019501,239.158813 
	C160.947891,238.847473 160.965286,238.673615 161.022293,238.240631 
	C161.390656,238.359833 161.719406,238.738159 162.099945,239.369263 
	C162.151733,239.622040 161.683609,239.686890 161.451477,239.645691 
	C161.219360,239.604507 161.108521,239.296280 161.019501,239.158813 
z"/>
<path fill="#60A8C9" opacity="1.000000" stroke="none" 
	d="
M168.003342,246.831390 
	C168.267593,246.906082 168.234772,247.397812 168.274109,247.641174 
	C167.975189,247.699326 167.636948,247.514099 167.244522,247.031708 
	C167.373245,246.741928 167.556168,246.749313 168.003342,246.831390 
z"/>
<path fill="#60A8C9" opacity="1.000000" stroke="none" 
	d="
M167.309494,245.908493 
	C167.309494,245.908493 167.353790,246.345718 167.329315,246.562561 
	C166.963013,246.684860 166.621216,246.590332 166.115402,246.276978 
	C165.951401,246.058121 166.126160,245.878616 166.461151,245.864410 
	C166.967270,245.869629 167.138382,245.889069 167.309494,245.908493 
z"/>
<path fill="#C7EEF7" opacity="1.000000" stroke="none" 
	d="
M159.214600,185.824554 
	C158.977432,185.560410 159.004898,185.143158 159.069778,184.414474 
	C159.107208,184.103043 159.535416,184.006958 159.753830,183.987076 
	C159.807907,184.535278 159.643570,185.103363 159.214600,185.824554 
z"/>
<path fill="#1A6EA5" opacity="1.000000" stroke="none" 
	d="
M242.357498,181.902618 
	C241.545074,176.072464 245.184631,172.417160 249.760437,169.082275 
	C247.634018,173.294968 245.147110,177.512848 242.357498,181.902618 
z"/>
<path fill="#1A6EA5" opacity="1.000000" stroke="none" 
	d="
M241.349579,183.073334 
	C241.257065,182.852615 241.423187,182.546494 241.836319,182.135834 
	C241.924957,182.350189 241.766602,182.669052 241.349579,183.073334 
z"/>
<path fill="#E1F7FB" opacity="1.000000" stroke="none" 
	d="
M212.424622,166.736115 
	C212.656601,169.701172 211.464310,171.051346 208.070526,170.277145 
	C205.706131,169.737747 202.970123,170.587097 200.722092,169.843124 
	C198.314255,169.046265 196.283798,167.109085 194.070587,165.303833 
	C199.772430,168.132767 205.638412,169.942856 212.424622,166.736115 
z"/>
<path fill="#E1F7FB" opacity="1.000000" stroke="none" 
	d="
M225.943069,170.200836 
	C226.010727,170.437820 225.807831,170.725464 225.336334,171.070587 
	C225.269348,170.835876 225.470932,170.543671 225.943069,170.200836 
z"/>
<path fill="#C7EEF7" opacity="1.000000" stroke="none" 
	d="
M158.181152,187.831970 
	C158.095612,187.425217 158.277023,186.861588 158.709991,186.128662 
	C158.790405,186.531265 158.619247,187.103180 158.181152,187.831970 
z"/>
<path fill="#C7EEF7" opacity="1.000000" stroke="none" 
	d="
M161.021637,237.642715 
	C160.681061,237.503906 160.324295,237.063278 159.936615,236.327362 
	C160.272278,236.468338 160.638855,236.904602 161.021637,237.642715 
z"/>
<path fill="#C7EEF7" opacity="1.000000" stroke="none" 
	d="
M167.405670,245.747925 
	C167.138382,245.889069 166.967270,245.869629 166.549759,245.775879 
	C166.303360,245.701538 166.239487,245.306351 166.265228,245.107513 
	C166.694595,245.134903 167.098206,245.361130 167.405670,245.747925 
z"/>
<path fill="#C7EEF7" opacity="1.000000" stroke="none" 
	d="
M165.096512,184.188202 
	C165.016357,184.011627 165.512405,183.998199 165.760620,183.995789 
	C165.731461,184.117188 165.454056,184.240982 165.096512,184.188202 
z"/>
<path fill="#C7EEF7" opacity="1.000000" stroke="none" 
	d="
M164.878815,242.823547 
	C164.685120,242.869247 164.416000,242.675064 164.083572,242.232941 
	C164.281311,242.184555 164.542358,242.384109 164.878815,242.823547 
z"/>
<path fill="#C7EEF7" opacity="1.000000" stroke="none" 
	d="
M165.840118,243.920319 
	C165.632385,243.967972 165.365753,243.753204 165.017517,243.290710 
	C165.217682,243.247971 165.499451,243.452942 165.840118,243.920319 
z"/>
<path fill="#C7EEF7" opacity="1.000000" stroke="none" 
	d="
M239.437439,188.756561 
	C239.385712,189.958984 239.068161,191.398254 238.370377,192.920792 
	C238.383987,191.667191 238.777802,190.330307 239.437439,188.756561 
z"/>
</svg>